<?xml version="1.0" encoding="utf-8"?>
<!-- Generator: Adobe Illustrator 17.0.0, SVG Export Plug-In . SVG Version: 6.00 Build 0)  -->
<!DOCTYPE svg PUBLIC "-//W3C//DTD SVG 1.1//EN" "http://www.w3.org/Graphics/SVG/1.1/DTD/svg11.dtd">
<svg version="1.1" id="Layer_1" xmlns="http://www.w3.org/2000/svg" xmlns:xlink="http://www.w3.org/1999/xlink" x="0px" y="0px"
	 width="360px" height="100px" viewBox="0 0 360 100" enable-background="new 0 0 360 100" xml:space="preserve">
<path fill="#1389CA" d="M100.917,0H85.01c-1.148,0-2.155,0.946-2.155,2.024v94.648c0,1.109,1.048,2.156,2.155,2.156h15.907
	c1.168,0,1.892-1.119,1.892-2.156V2.024C102.809,0.869,101.996,0,100.917,0z M270.747,24.248c-8.387,0-14.054,1.808-20.912,6.672
	l-0.92,0.652v-4.257c0-1.117-0.908-2.026-2.025-2.026h-14.601c-1.117,0-2.025,0.908-2.025,2.026v69.356
	c0,1.109,1.048,2.156,2.155,2.156h15.774c1.079,0,2.025-1.007,2.025-2.156V44.956l0.31-0.164c4.808-2.545,8.78-4.241,12.529-4.241
	c8.752,0,10.229,3.92,10.229,12.709v43.412c0,1.149,0.946,2.156,2.025,2.156h15.774c1.108,0,2.155-1.047,2.155-2.156V53.26
	C293.24,32.924,286.513,24.248,270.747,24.248z M352.004,30.278c-4.949-4-12.325-6.03-21.925-6.03
	c-8.287,0-17.256,1.466-22.419,2.722c-1.308,0.326-2.03,1.145-2.03,2.301v10.56c0,1.187,0.577,1.763,1.763,1.763h0.651
	c3.868-0.377,13.194-0.911,21.641-0.911c6.221,0,10.362,1.629,10.362,9.578v5.277h-7.622c-11.118,0-18.99,1.699-24.066,5.193
	c-4.993,3.439-7.422,8.757-7.422,16.257v1.174c0,19.003,13.602,21.839,21.71,21.839c6.935,0,12.086-1.668,17.781-5.757l0.924-0.662
	v3.222c0,1.117,0.908,2.025,2.024,2.025h14.601c1.117,0,2.025-0.908,2.025-2.025V50.261C360,41.293,357.309,34.57,352.004,30.278z
	 M340.438,82.17l-0.321,0.161c-3.941,1.973-7.524,2.93-10.952,2.93c-5.571,0-8.796-1.161-8.796-7.101v-1.174
	c0-7.362,3.268-10.1,12.056-10.1h8.014V82.17z M219.651,24.248c-6.302,0-12.581,2.232-17.224,6.122l-0.957,0.802v-3.856
	c0-1.117-0.909-2.026-2.025-2.026H183.93c-1.115,0-2.023,0.908-2.023,2.026v69.356c0,1.109,1.047,2.156,2.155,2.156h15.774
	c1.079,0,2.025-1.007,2.025-2.156V45.35l0.306-0.166c5.769-3.119,11.36-4.634,17.094-4.634h1.044c0.785,0,1.371-1,1.371-1.893
	V26.272C221.676,25.156,220.768,24.248,219.651,24.248z M162.199,30.278c-4.949-4-12.326-6.03-21.928-6.03
	c-8.286,0-17.253,1.466-22.415,2.722c-1.309,0.327-2.032,1.145-2.032,2.301v10.56c0,1.187,0.577,1.763,1.761,1.763h0.654
	c3.866-0.377,13.192-0.911,21.641-0.911c6.22,0,10.36,1.629,10.36,9.578v5.277h-7.622c-11.118,0-18.99,1.699-24.066,5.193
	c-4.993,3.439-7.422,8.757-7.422,16.257v1.174c0,19.003,13.602,21.839,21.71,21.839c6.934,0,12.086-1.668,17.781-5.757l0.924-0.662
	v3.222c0,1.117,0.908,2.025,2.023,2.025h14.601c1.117,0,2.025-0.908,2.025-2.025V50.261
	C170.195,41.293,167.504,34.57,162.199,30.278z M150.633,82.17l-0.321,0.161c-3.942,1.973-7.524,2.93-10.952,2.93
	c-5.571,0-8.796-1.161-8.796-7.101v-1.174c0-7.362,3.266-10.1,12.056-10.1h8.014V82.17z"/>
<path fill="#1389CA" d="M26.927,46.499c16.534-0.209,31.897-9.189,40.201-23.544C71.153,16,73.324,8.075,73.425,0
	C65.353,0.101,57.428,2.273,50.47,6.297C36.114,14.602,27.136,29.964,26.927,46.499z"/>
<path fill="#1389CA" d="M18.969,0H5.832C2.611,0,0,2.61,0,5.832V96.45c0,1.037,0.895,2.156,2.341,2.156h13.138
	c3.221,0,5.832-2.611,5.832-5.832V2.024C21.311,0.87,20.304,0,18.969,0z"/>
<path fill="#1389CA" d="M26.927,52.329c0.209,16.535,9.188,31.898,23.543,40.202c6.957,4.024,14.882,6.197,22.955,6.297
	c-0.101-8.073-2.272-15.998-6.297-22.955C58.825,61.519,43.462,52.538,26.927,52.329z"/>
</svg>
